<svg width="291" height="63" viewBox="0 0 291 63" fill="none" xmlns="http://www.w3.org/2000/svg">
<path d="M11.0633 26.864C11.7886 26.864 12.2793 26.9813 12.5353 27.216C12.8126 27.4507 13.0046 27.9413 13.1113 28.688L15.2233 45.712C15.2873 46.224 15.4259 46.5547 15.6393 46.704C15.8526 46.8533 16.1939 46.9387 16.6633 46.96L16.6313 50H15.2233C13.3459 50 12.1086 49.5413 11.5113 48.624C11.1913 48.1333 10.9673 47.6533 10.8393 47.184C10.7113 46.6933 10.5939 46.0107 10.4873 45.136L7.99125 26.864H11.0633ZM19.4153 50H17.4313L20.9193 28.688C21.0046 27.9627 21.1859 27.4827 21.4633 27.248C21.7406 26.992 22.2419 26.864 22.9673 26.864H26.0073L22.8073 45.776C22.6579 46.5867 22.5299 47.184 22.4233 47.568C22.3379 47.952 22.1779 48.368 21.9433 48.816C21.7086 49.264 21.3886 49.5733 20.9833 49.744C20.5779 49.9147 20.0553 50 19.4153 50ZM35.757 36.4H34.029C33.3677 36.4 32.9943 36.5173 32.909 36.752C32.781 37.0293 32.717 37.424 32.717 37.936V46.064C32.717 46.1067 32.717 46.2347 32.717 46.448C32.717 46.6613 32.7383 46.8427 32.781 46.992C32.8663 47.3973 33.2823 47.6 34.029 47.6H35.757V50H32.653C31.8423 50 31.181 49.968 30.669 49.904C30.157 49.8187 29.709 49.648 29.325 49.392C28.941 49.136 28.653 48.8587 28.461 48.56C28.269 48.24 28.109 47.7387 27.981 47.056C27.8317 46.096 27.757 44.752 27.757 43.024C27.757 41.296 27.7677 40.1333 27.789 39.536C27.8103 38.9173 27.8423 38.2667 27.885 37.584C27.949 36.9013 28.045 36.4 28.173 36.08C28.3223 35.76 28.5037 35.44 28.717 35.12C28.9517 34.7787 29.2503 34.544 29.613 34.416C30.4023 34.1387 31.4157 34 32.653 34H35.757V36.4ZM42.957 49.776C42.957 49.9253 42.9143 50 42.829 50H40.205C39.0103 50 38.125 49.7227 37.549 49.168C36.9943 48.6133 36.717 47.7067 36.717 46.448V34H38.029C39.373 34 40.2903 34.32 40.781 34.96C41.2717 35.5787 41.517 36.4 41.517 37.424V46.384C41.517 47.0453 41.6557 47.4187 41.933 47.504C42.0823 47.568 42.285 47.6 42.541 47.6H42.701C42.8717 47.6 42.957 47.6747 42.957 47.824V49.776ZM51.209 34H54.313C56.425 34 57.7263 34.3627 58.217 35.088C58.4517 35.4293 58.633 35.76 58.761 36.08C58.9103 36.4 59.0063 36.9013 59.049 37.584C59.1557 38.8213 59.209 40.1973 59.209 41.712C59.209 43.2267 59.1983 44.3253 59.177 45.008C59.1557 45.6693 59.081 46.352 58.953 47.056C58.8463 47.7387 58.697 48.24 58.505 48.56C58.313 48.8587 58.025 49.136 57.641 49.392C57.257 49.648 56.809 49.8187 56.297 49.904C55.785 49.968 55.1237 50 54.313 50H51.209V47.6H52.937C53.4917 47.6 53.8437 47.5253 53.993 47.376C54.1637 47.2267 54.249 46.992 54.249 46.672V37.36C54.249 37.0187 54.1637 36.7733 53.993 36.624C53.8437 36.4747 53.4917 36.4 52.937 36.4H51.209V34ZM50.249 57.136H48.297C47.3583 57.136 46.6437 56.9013 46.153 56.432C45.6837 55.984 45.449 55.3973 45.449 54.672V36.464C45.449 35.7387 45.6837 35.152 46.153 34.704C46.6437 34.2347 47.3583 34 48.297 34H50.249V57.136ZM67.4358 50H67.3718C65.2598 50 63.9584 49.6373 63.4678 48.912C63.2331 48.5707 63.0411 48.24 62.8918 47.92C62.7638 47.6 62.6784 47.0987 62.6358 46.416C62.5291 45.1787 62.4758 43.8027 62.4758 42.288C62.4758 40.7733 62.4864 39.6853 62.5078 39.024C62.5291 38.3413 62.5931 37.6587 62.6998 36.976C62.8278 36.272 62.9878 35.7707 63.1798 35.472C63.3718 35.152 63.6598 34.864 64.0438 34.608C64.4278 34.352 64.8758 34.192 65.3878 34.128C65.8998 34.0427 66.5611 34 67.3718 34H67.4358V50ZM75.9478 44.944V46.576C75.9478 48.8587 74.7851 50 72.4598 50H68.4278V47.6H70.1558C70.6038 47.6 70.8811 47.536 70.9878 47.408C71.0944 47.2587 71.1478 47.0027 71.1478 46.64V45.616C71.1478 45.296 71.1798 45.1147 71.2438 45.072C71.3291 45.0293 71.3824 45.008 71.4038 45.008C71.4251 44.9867 71.4784 44.976 71.5638 44.976C71.6704 44.9547 71.7451 44.944 71.7878 44.944C73.1744 44.944 74.5611 44.944 75.9478 44.944ZM68.4278 34H72.1398C73.6118 34 74.6144 34.288 75.1478 34.864C75.6811 35.44 75.9478 36.2933 75.9478 37.424V40.24C75.9478 42.16 74.9024 43.12 72.8118 43.12H68.1078V40.72H69.8358C70.3478 40.72 70.6891 40.656 70.8598 40.528C71.0518 40.4 71.1478 40.1547 71.1478 39.792V37.36C71.1478 36.9973 71.0944 36.752 70.9878 36.624C70.8811 36.4747 70.6038 36.4 70.1558 36.4H68.4278V34ZM87.4528 49.744C87.4528 49.872 87.3888 49.9573 87.2608 50H84.8288C83.2714 50 82.1408 49.6907 81.4368 49.072C80.7328 48.4533 80.3808 47.3653 80.3808 45.808V36.464H78.7488C78.2154 36.464 77.9488 36.144 77.9488 35.504V34H80.3808V26.864H82.3328C83.2714 26.864 83.9754 27.0987 84.4448 27.568C84.9354 28.0373 85.1808 28.6347 85.1808 29.36V46.384C85.1808 47.1733 85.6288 47.568 86.5248 47.568H87.1968C87.3674 47.568 87.4528 47.6427 87.4528 47.792V49.744ZM88.4448 34V35.504C88.4448 36.144 88.1781 36.464 87.6448 36.464H85.9808V34H88.4448ZM98.3195 36.4H96.5915C95.9302 36.4 95.5568 36.5173 95.4715 36.752C95.3435 37.0293 95.2795 37.424 95.2795 37.936V46.064C95.2795 46.1067 95.2795 46.2347 95.2795 46.448C95.2795 46.6613 95.3008 46.8427 95.3435 46.992C95.4288 47.3973 95.8448 47.6 96.5915 47.6H98.3195V50H95.2155C94.4048 50 93.7435 49.968 93.2315 49.904C92.7195 49.8187 92.2715 49.648 91.8875 49.392C91.5035 49.136 91.2155 48.8587 91.0235 48.56C90.8315 48.24 90.6715 47.7387 90.5435 47.056C90.3942 46.096 90.3195 44.752 90.3195 43.024C90.3195 41.296 90.3302 40.1333 90.3515 39.536C90.3728 38.9173 90.4048 38.2667 90.4475 37.584C90.5115 36.9013 90.6075 36.4 90.7355 36.08C90.8848 35.76 91.0662 35.44 91.2795 35.12C91.5142 34.7787 91.8128 34.544 92.1755 34.416C92.9648 34.1387 93.9782 34 95.2155 34H98.3195V36.4ZM105.52 49.776C105.52 49.9253 105.477 50 105.392 50H102.768C101.573 50 100.688 49.7227 100.112 49.168C99.5568 48.6133 99.2795 47.7067 99.2795 46.448V34H100.592C101.936 34 102.853 34.32 103.344 34.96C103.834 35.5787 104.08 36.4 104.08 37.424V46.384C104.08 47.0453 104.218 47.4187 104.496 47.504C104.645 47.568 104.848 47.6 105.104 47.6H105.264C105.434 47.6 105.52 47.6747 105.52 47.824V49.776ZM112.428 34V39.856C112.428 40.2187 112.481 40.4747 112.588 40.624C112.694 40.752 112.972 40.816 113.42 40.816H115.212V43.216H111.116C108.79 43.216 107.628 42.0747 107.628 39.792V37.552C107.628 36.144 107.98 35.2053 108.684 34.736C109.409 34.2453 110.657 34 112.428 34ZM112.492 44.944V46.64C112.492 47.0027 112.545 47.2587 112.652 47.408C112.758 47.536 113.036 47.6 113.484 47.6H115.212V50H111.18C108.854 50 107.692 48.8587 107.692 46.576V45.616C107.692 45.296 107.724 45.1147 107.788 45.072C107.873 45.0293 107.926 45.008 107.948 45.008C107.969 44.9867 108.022 44.976 108.108 44.976C108.214 44.9547 108.278 44.944 108.299 44.944C109.707 44.944 111.105 44.944 112.492 44.944ZM116.172 40.816H117.484C119.809 40.816 120.972 41.9573 120.972 44.24V46.448C120.972 47.856 120.609 48.8053 119.884 49.296C119.18 49.7653 117.942 50 116.172 50V40.816ZM113.388 34H117.42C119.745 34 120.908 35.1413 120.908 37.424V39.088C119.478 39.088 118.39 39.088 117.644 39.088C116.897 39.088 116.513 39.088 116.492 39.088C116.47 39.0667 116.428 39.056 116.364 39.056C116.321 39.0347 116.289 39.0133 116.268 38.992C116.246 38.9707 116.225 38.9493 116.204 38.928C116.182 38.8853 116.172 38.8427 116.172 38.8C116.129 38.6293 116.108 38.5013 116.108 38.416V37.36C116.108 36.9973 116.054 36.752 115.948 36.624C115.841 36.4747 115.564 36.4 115.116 36.4H113.388V34ZM124.262 34.032H126.214C127.153 34.032 127.857 34.2667 128.326 34.736C128.817 35.184 129.062 35.7707 129.062 36.496V50H125.414C125.073 50 124.796 49.8827 124.582 49.648C124.369 49.4133 124.262 49.104 124.262 48.72V34.032ZM124.486 27.216C124.721 26.9813 125.404 26.864 126.534 26.864C127.665 26.864 128.348 26.9813 128.582 27.216C128.817 27.4293 128.934 28.0693 128.934 29.136C128.934 30.2027 128.806 30.8533 128.55 31.088C128.316 31.3227 127.644 31.44 126.534 31.44C125.425 31.44 124.742 31.3227 124.486 31.088C124.252 30.8533 124.134 30.2027 124.134 29.136C124.134 28.0693 124.252 27.4293 124.486 27.216ZM140.507 36.4H138.779C138.118 36.4 137.744 36.5173 137.659 36.752C137.531 37.0293 137.467 37.424 137.467 37.936V46.064C137.467 46.1067 137.467 46.2347 137.467 46.448C137.467 46.6613 137.488 46.8427 137.531 46.992C137.616 47.3973 138.032 47.6 138.779 47.6H140.507V50H137.403C136.592 50 135.931 49.968 135.419 49.904C134.907 49.8187 134.459 49.648 134.075 49.392C133.691 49.136 133.403 48.8587 133.211 48.56C133.019 48.24 132.859 47.7387 132.731 47.056C132.582 46.096 132.507 44.752 132.507 43.024C132.507 41.296 132.518 40.1333 132.539 39.536C132.56 38.9173 132.592 38.2667 132.635 37.584C132.699 36.9013 132.795 36.4 132.923 36.08C133.072 35.76 133.254 35.44 133.467 35.12C133.702 34.7787 134 34.544 134.363 34.416C135.152 34.1387 136.166 34 137.403 34H140.507V36.4ZM147.707 49.776C147.707 49.9253 147.664 50 147.579 50H144.955C143.76 50 142.875 49.7227 142.299 49.168C141.744 48.6133 141.467 47.7067 141.467 46.448V34H142.779C144.123 34 145.04 34.32 145.531 34.96C146.022 35.5787 146.267 36.4 146.267 37.424V46.384C146.267 47.0453 146.406 47.4187 146.683 47.504C146.832 47.568 147.035 47.6 147.291 47.6H147.451C147.622 47.6 147.707 47.6747 147.707 47.824V49.776ZM162.361 50H159.001C158.275 50 157.795 49.8827 157.561 49.648C157.347 49.4133 157.241 48.9227 157.241 48.176V28.688C157.241 27.9413 157.347 27.4507 157.561 27.216C157.795 26.9813 158.275 26.864 159.001 26.864H162.361V50ZM172.112 34H176.592C178.918 34 180.08 35.1413 180.08 37.424V50H176.432C176.091 50 175.814 49.8827 175.6 49.648C175.387 49.4133 175.28 49.104 175.28 48.72V37.36C175.28 37.0187 175.195 36.7733 175.024 36.624C174.875 36.4747 174.523 36.4 173.968 36.4H172.112V34ZM166.512 34H168.464C169.403 34 170.107 34.2347 170.576 34.704C171.067 35.152 171.312 35.7387 171.312 36.464V50H167.664C167.323 50 167.046 49.8827 166.832 49.648C166.619 49.4133 166.512 49.104 166.512 48.72V34ZM195.861 50H192.501C191.775 50 191.295 49.8827 191.061 49.648C190.847 49.4133 190.741 48.9333 190.741 48.208V28.72C190.741 27.9733 190.858 27.4827 191.093 27.248C191.327 26.992 191.797 26.864 192.501 26.864H195.861V50ZM203.829 35.792V37.712C203.829 38.48 203.754 38.9707 203.605 39.184C203.455 39.376 203.029 39.472 202.325 39.472H197.141V35.792H203.829ZM205.109 26.864V29.616C205.109 30.3413 204.991 30.8213 204.757 31.056C204.522 31.2693 204.031 31.376 203.285 31.376H197.141V26.864H205.109ZM211.124 34H214.964C215.092 34 215.156 34.0747 215.156 34.224V36.176C215.156 36.3253 215.07 36.4 214.9 36.4H213.46C212.948 36.4 212.649 36.496 212.564 36.688C212.478 36.9653 212.436 37.2747 212.436 37.616V47.536C212.436 48.2613 212.19 48.8587 211.7 49.328C211.23 49.776 210.526 50 209.588 50H207.636V37.552C207.636 36.2933 207.913 35.3867 208.468 34.832C209.044 34.2773 209.929 34 211.124 34ZM217.542 34H221.19C221.531 34 221.809 34.1173 222.022 34.352C222.235 34.5867 222.342 34.896 222.342 35.28V46.64C222.342 46.9813 222.417 47.2267 222.566 47.376C222.737 47.5253 223.099 47.6 223.654 47.6H225.51V50H221.03C218.705 50 217.542 48.8587 217.542 46.576V34ZM232.55 49.776C232.55 49.9253 232.497 50 232.39 50H229.158C228.219 50 227.505 49.776 227.014 49.328C226.545 48.8587 226.31 48.2613 226.31 47.536V34H229.958C230.299 34 230.577 34.1173 230.79 34.352C231.003 34.5867 231.11 34.896 231.11 35.28V46.384C231.11 47.0453 231.249 47.4187 231.526 47.504C231.675 47.568 231.878 47.6 232.134 47.6H232.294C232.465 47.6 232.55 47.6747 232.55 47.824V49.776ZM235.137 34.032H237.089C238.028 34.032 238.732 34.2667 239.201 34.736C239.692 35.184 239.937 35.7707 239.937 36.496V50H236.289C235.948 50 235.671 49.8827 235.457 49.648C235.244 49.4133 235.137 49.104 235.137 48.72V34.032ZM235.361 27.216C235.596 26.9813 236.279 26.864 237.409 26.864C238.54 26.864 239.223 26.9813 239.457 27.216C239.692 27.4293 239.809 28.0693 239.809 29.136C239.809 30.2027 239.681 30.8533 239.425 31.088C239.191 31.3227 238.519 31.44 237.409 31.44C236.3 31.44 235.617 31.3227 235.361 31.088C235.127 30.8533 235.009 30.2027 235.009 29.136C235.009 28.0693 235.127 27.4293 235.361 27.216ZM251.734 49.744C251.734 49.872 251.67 49.9573 251.542 50H249.11C247.553 50 246.422 49.6907 245.718 49.072C245.014 48.4533 244.662 47.3653 244.662 45.808V36.464H243.03C242.497 36.464 242.23 36.144 242.23 35.504V34H244.662V26.864H246.614C247.553 26.864 248.257 27.0987 248.726 27.568C249.217 28.0373 249.462 28.6347 249.462 29.36V46.384C249.462 47.1733 249.91 47.568 250.806 47.568H251.478C251.649 47.568 251.734 47.6427 251.734 47.792V49.744ZM252.726 34V35.504C252.726 36.144 252.459 36.464 251.926 36.464H250.262V34H252.726Z" fill="white"/>
<path d="M180.391 18.54C181.791 18.54 183.131 18.3 184.411 17.82L185.091 19.98C184.011 20.3133 182.911 20.48 181.791 20.48C180.671 20.48 179.671 20.36 178.791 20.12C177.924 19.88 177.257 19.5667 176.791 19.18C176.564 18.06 176.451 16.9533 176.451 15.86C176.451 13.6333 176.871 11.6133 177.711 9.8C178.551 7.98667 179.517 6.72 180.611 6L184.471 8.44C182.631 9.61333 181.171 11.1067 180.091 12.92C179.011 14.7333 178.471 16.56 178.471 18.4C179.044 18.4933 179.684 18.54 180.391 18.54ZM194.85 16.32C194.85 17.7733 194.53 18.8333 193.89 19.5C193.263 20.1533 192.097 20.48 190.39 20.48C188.683 20.48 187.35 20.0933 186.39 19.32C186.19 18.36 186.09 17.4 186.09 16.44C186.09 15.48 186.223 14.58 186.49 13.74C186.77 12.8867 187.117 12.16 187.53 11.56C188.397 10.3333 189.17 9.55333 189.85 9.22C191.13 9.87333 192.257 10.76 193.23 11.88C194.31 13.1067 194.85 14.5867 194.85 16.32ZM192.53 15.78C192.53 14.5133 192.263 13.3533 191.73 12.3C190.623 12.8867 189.71 13.78 188.99 14.98C188.27 16.18 187.91 17.3933 187.91 18.62C188.337 18.7 188.95 18.74 189.75 18.74C190.55 18.74 191.37 18.6 192.21 18.32C192.423 17.5067 192.53 16.66 192.53 15.78ZM205.612 16.32C205.612 17.7733 205.292 18.8333 204.652 19.5C204.025 20.1533 202.858 20.48 201.152 20.48C199.445 20.48 198.112 20.0933 197.152 19.32C196.952 18.36 196.852 17.4 196.852 16.44C196.852 15.48 196.985 14.58 197.252 13.74C197.532 12.8867 197.878 12.16 198.292 11.56C199.158 10.3333 199.932 9.55333 200.612 9.22C201.892 9.87333 203.018 10.76 203.992 11.88C205.072 13.1067 205.612 14.5867 205.612 16.32ZM203.292 15.78C203.292 14.5133 203.025 13.3533 202.492 12.3C201.385 12.8867 200.472 13.78 199.752 14.98C199.032 16.18 198.672 17.3933 198.672 18.62C199.098 18.7 199.712 18.74 200.512 18.74C201.312 18.74 202.132 18.6 202.972 18.32C203.185 17.5067 203.292 16.66 203.292 15.78ZM209.033 20.3L208.013 6.34L212.293 5.68L211.013 20.12L209.033 20.3ZM229.32 15.06L225.32 14.74L224.68 20.08L222.48 20.18L221.54 7L230.36 6.72L230.3 8.06L226.08 8.56L225.5 13.3L229.22 13.26L229.32 15.06ZM239.928 16.32C239.928 17.7733 239.608 18.8333 238.968 19.5C238.341 20.1533 237.175 20.48 235.468 20.48C233.761 20.48 232.428 20.0933 231.468 19.32C231.268 18.36 231.168 17.4 231.168 16.44C231.168 15.48 231.301 14.58 231.568 13.74C231.848 12.8867 232.195 12.16 232.608 11.56C233.475 10.3333 234.248 9.55333 234.928 9.22C236.208 9.87333 237.335 10.76 238.308 11.88C239.388 13.1067 239.928 14.5867 239.928 16.32ZM237.608 15.78C237.608 14.5133 237.341 13.3533 236.808 12.3C235.701 12.8867 234.788 13.78 234.068 14.98C233.348 16.18 232.988 17.3933 232.988 18.62C233.415 18.7 234.028 18.74 234.828 18.74C235.628 18.74 236.448 18.6 237.288 18.32C237.501 17.5067 237.608 16.66 237.608 15.78ZM248.59 13.42C247.683 13.42 246.996 13.74 246.53 14.38C246.063 15.0067 245.723 16.1667 245.51 17.86L245.23 20.12L243.25 20.3L242.23 10.38L246.51 9.72L246.11 12.92H246.25C247.316 10.6267 248.676 9.40667 250.33 9.26L249.77 13.52C249.276 13.4533 248.883 13.42 248.59 13.42ZM260.9 6.7L262.5 13.94H262.68L265.56 6.76L267.18 7.2L263.74 15.3L262.98 20.08L260.98 20.28L260.36 15.82L256.4 7.24L260.9 6.7ZM276.139 16.32C276.139 17.7733 275.819 18.8333 275.179 19.5C274.552 20.1533 273.386 20.48 271.679 20.48C269.972 20.48 268.639 20.0933 267.679 19.32C267.479 18.36 267.379 17.4 267.379 16.44C267.379 15.48 267.512 14.58 267.779 13.74C268.059 12.8867 268.406 12.16 268.819 11.56C269.686 10.3333 270.459 9.55333 271.139 9.22C272.419 9.87333 273.546 10.76 274.519 11.88C275.599 13.1067 276.139 14.5867 276.139 16.32ZM273.819 15.78C273.819 14.5133 273.552 13.3533 273.019 12.3C271.912 12.8867 270.999 13.78 270.279 14.98C269.559 16.18 269.199 17.3933 269.199 18.62C269.626 18.7 270.239 18.74 271.039 18.74C271.839 18.74 272.659 18.6 273.499 18.32C273.712 17.5067 273.819 16.66 273.819 15.78ZM284.201 17.66C284.694 17.02 285.034 16.3267 285.221 15.58C285.407 14.8333 285.501 14.1867 285.501 13.64C285.501 13.08 285.421 12 285.261 10.4L289.541 9.74L288.261 20.12L286.281 20.3L285.881 16.5H285.741C284.754 19.14 283.181 20.46 281.021 20.46C280.701 20.46 280.434 20.4067 280.221 20.3C279.541 19.4733 279.074 18.0733 278.821 16.1C278.567 14.1133 278.441 12.1333 278.441 10.16L282.441 9.86C282.201 12.1933 282.081 13.94 282.081 15.1C282.081 16.26 282.181 17.5067 282.381 18.84C283.114 18.68 283.721 18.2867 284.201 17.66Z" fill="#FC8FFE" fill-opacity="0.93"/>
</svg>
